<svg xmlns="http://www.w3.org/2000/svg" width="24" height="24" viewBox="0 0 24 24"><path style="line-height:normal;font-variant-ligatures:normal;font-variant-position:normal;font-variant-caps:normal;font-variant-numeric:normal;font-variant-alternates:normal;font-variant-east-asian:normal;font-feature-settings:normal;font-variation-settings:normal;text-indent:0;text-align:start;text-decoration-line:none;text-decoration-style:solid;text-decoration-color:#000;text-transform:none;text-orientation:mixed;white-space:normal;shape-padding:0;shape-margin:0;inline-size:0;isolation:auto;mix-blend-mode:normal;solid-color:#000;solid-opacity:1" d="m 12,332.65 c -2.7527,0 -5,2.2473 -5,5 v 3 c -1.8456217,0 -3,1.52123 -3,2.83203 v 6.33399 C 4,351.36838 5.28161,352.65 6.83398,352.65 H 17.16602 C 18.71839,352.65 20,351.36838 20,349.81602 v -6.33399 C 20,341.59871 18.47856,340.65 17,340.65 v -3 c 0,-2.7527 -2.2473,-5 -5,-5 z m 0,2 c 1.6793,0 3,1.3207 3,3 v 3 H 9 v -3 c 0,-1.6793 1.3207,-3 3,-3 z m -5.16602,8 h 10.33204 c 0.47896,0 0.83398,0.35306 0.83398,0.83203 v 6.33399 c 0,0.47895 -0.35502,0.83398 -0.83398,0.83398 H 6.83398 C 6.35502,350.65 6,350.29497 6,349.81602 v -6.33399 C 6,343.00306 6.35502,342.65 6.83398,342.65 Z" color="#000" enable-background="accumulate" font-family="sans-serif" font-weight="400" overflow="visible" transform="translate(0 -330.65)"/></svg>