<svg xmlns="http://www.w3.org/2000/svg" viewBox="0 0 16 16"><path fill="#231f20" d="M6 6A2 2 0 0 0 4.5 4.07V2.5a.5.5 0 0 0-1 0V4.07a2 2 0 0 0 0 3.86V13.5a.5.5 0 0 0 1 0V7.93A2 2 0 0 0 6 6zM4 7A1 1 0 1 1 5 6 1 1 0 0 1 4 7zM8.5 9.07V2.5a.5.5 0 0 0-1 0V9.07a2 2 0 0 0 0 3.86v.57a.5.5 0 0 0 1 0v-.57a2 2 0 0 0 0-3.86zM8 12a1 1 0 1 1 1-1A1 1 0 0 1 8 12zM14 5a2 2 0 0 0-1.5-1.93V2.5a.5.5 0 0 0-1 0v.57a2 2 0 0 0 0 3.86V13.5a.5.5 0 0 0 1 0V6.93A2 2 0 0 0 14 5zM12 6a1 1 0 1 1 1-1A1 1 0 0 1 12 6z" data-name="Layer 2"/></svg>